<svg xmlns="http://www.w3.org/2000/svg" xmlns:xlink="http://www.w3.org/1999/xlink" width="93.954" height="60.625" viewBox="0 0 93.954 60.625"><defs><style>.a{fill:#fff;}.b{clip-path:url(#a);}.c{clip-path:url(#b);}.d{clip-path:url(#c);}.e{clip-path:url(#d);}</style><clipPath id="a"><path class="a" d="M29.273,85.641H42.268V97.635H29.273Zm0,0" transform="translate(-29.273 -85.641)"/></clipPath><clipPath id="b"><path class="a" d="M29.629,243H42.5v13.861H29.629Zm0,0" transform="translate(-29.629 -243)"/></clipPath><clipPath id="c"><path class="a" d="M299.082,243h13.771v13.861H299.082Zm0,0" transform="translate(-299.082 -243)"/></clipPath><clipPath id="d"><path class="a" d="M299.082,85.641h13.771V97.635H299.082Zm0,0" transform="translate(-299.082 -85.641)"/></clipPath></defs><path class="a" d="M49.633,157.728h2.3V114.863h-2.3v42.865" transform="translate(-43.582 -106.179)"/><path class="a" d="M316.923,114.863h-2.306v42.865h2.306V114.863" transform="translate(-229.818 -106.179)"/><path class="a" d="M67.359,151.135h2.3V114.863h-2.3v36.271" transform="translate(-56.041 -106.179)"/><path class="a" d="M82.461,151.135h5.184V114.863H82.461v36.271" transform="translate(-66.654 -106.179)"/><path class="a" d="M110.507,114.863h-2.3v36.271h2.3V114.863" transform="translate(-84.746 -106.179)"/><path class="a" d="M129.928,114.863h-3.073v36.271h3.073V114.863" transform="translate(-97.855 -106.179)"/><path class="a" d="M152.909,114.863h-2.3v36.271h2.3V114.863" transform="translate(-114.547 -106.179)"/><path class="a" d="M171.806,114.863h-3.841v36.271h3.841V114.863" transform="translate(-126.748 -106.179)"/><path class="a" d="M191.449,157.728h2.3V114.863h-2.3v42.865" transform="translate(-143.253 -106.179)"/><path class="a" d="M211.4,151.135h2.3V114.863h-2.3v36.271" transform="translate(-157.272 -106.179)"/><path class="a" d="M230.313,151.135h3.841V114.863h-3.841v36.271" transform="translate(-170.567 -106.179)"/><path class="a" d="M255.152,114.863h-2.3v36.271h2.3V114.863" transform="translate(-186.405 -106.179)"/><path class="a" d="M268.9,151.135h5.185V114.863H268.9v36.271" transform="translate(-197.686 -106.179)"/><path class="a" d="M295.47,114.863H292.4v36.271h3.072V114.863" transform="translate(-214.202 -106.179)"/><path class="a" d="M68.77,247.473h2.3v-4.379h-2.3v4.379" transform="translate(-57.032 -196.302)"/><path class="a" d="M89.461,247.473h2.3v-4.379h-2.3v4.379" transform="translate(-71.574 -196.302)"/><path class="a" d="M111.141,247.473h2.3v-4.379h-2.3v4.379" transform="translate(-86.811 -196.302)"/><path class="a" d="M131.828,247.473h2.3v-4.379h-2.3v4.379" transform="translate(-101.351 -196.302)"/><path class="a" d="M155.125,247.473h2.3v-4.379h-2.3v4.379" transform="translate(-117.724 -196.302)"/><path class="a" d="M175.816,247.473h2.3v-4.379h-2.3v4.379" transform="translate(-132.266 -196.302)"/><path class="a" d="M210.434,247.473h2.3v-4.379h-2.3v4.379" transform="translate(-156.596 -196.302)"/><path class="a" d="M232.738,247.473h2.3v-4.379h-2.3v4.379" transform="translate(-172.272 -196.302)"/><path class="a" d="M253.434,247.473h2.3v-4.379h-2.3v4.379" transform="translate(-186.817 -196.302)"/><path class="a" d="M275.109,247.473h2.3v-4.379h-2.3v4.379" transform="translate(-202.051 -196.302)"/><path class="a" d="M298.105,243.094h-2.3v4.379h2.3v-4.379" transform="translate(-216.594 -196.302)"/><g class="b" transform="translate(0)"><path class="a" d="M31.933,92.893a4.948,4.948,0,0,1,4.94-4.944h5.54V85.641h-5.54a7.257,7.257,0,0,0-7.244,7.252v4.733h2.3V92.893" transform="translate(-29.523 -85.641)"/></g><g class="c" transform="translate(0.106 46.765)"><path class="a" d="M31.933,249.678v-6.584h-2.3v6.584a7.256,7.256,0,0,0,7.244,7.252h5.54v-2.306h-5.54a4.948,4.948,0,0,1-4.94-4.945" transform="translate(-29.629 -243.066)"/></g><g class="d" transform="translate(80.183 46.765)"><path class="a" d="M310.969,249.678a4.948,4.948,0,0,1-4.939,4.945h-6.35v2.306h6.35a7.256,7.256,0,0,0,7.244-7.252v-6.584h-2.3v6.584" transform="translate(-299.502 -243.066)"/></g><g class="e" transform="translate(80.183)"><path class="a" d="M306.03,85.641h-6.35v2.308h6.35a4.948,4.948,0,0,1,4.939,4.944v4.733h2.3V92.893a7.257,7.257,0,0,0-7.244-7.252" transform="translate(-299.502 -85.641)"/></g></svg>