<svg xmlns="http://www.w3.org/2000/svg" width="53.591" height="53.571" viewBox="0 0 53.591 53.571"><defs><style>.a{fill:#4d4d4d;}.b{fill:#fff;}</style></defs><g transform="translate(0 0.279)"><path class="a" d="M102.789,244.9c-6.479-5.476-13.778-11.245-13.778-11.245s-1.8,21.541,4.927,27.034c3.813,3.113,10.4,1.964,10.4,1.964v7.136h1.372a3.341,3.341,0,0,0-3.519,3.373,3.629,3.629,0,0,0,.88,2.347,3.21,3.21,0,0,0,2.639,1.075H104.34v-.567c0,1.234.351-.62,1.051.028a3.992,3.992,0,0,0,5.23,0c.7-.652,1.051,1.216,1.051.01v-14.61S112.937,253.476,102.789,244.9Zm.629,16.1c-14.6,0-13.435-25.084-13.435-25.084S113.312,261,103.419,261Z" transform="translate(-88.792 -233.654)"/></g><g transform="translate(30.662)"><path class="a" d="M130.89,261.058v14.61c0,1.205.35-.662,1.052-.01a3.993,3.993,0,0,0,5.229,0c.7-.648,1.051,1.205,1.051-.028v.567h-1.372a3.208,3.208,0,0,0,2.639-1.076,3.624,3.624,0,0,0,.88-2.346,3.34,3.34,0,0,0-3.519-3.373h1.372v-7.135s6.589,1.148,10.4-1.965c6.729-5.492,4.927-27.032,4.927-27.032s-7.3,5.769-13.778,11.245C129.624,253.093,130.89,261.058,130.89,261.058Zm21.688-25.521s1.165,25.084-13.435,25.084C129.25,260.621,152.578,235.537,152.578,235.537Z" transform="translate(-130.84 -233.272)"/></g><path class="a" d="M130.72,272.827c4.5,2.673,9.649,4.163,9.649,8.406,0,3.655-6.186,3.594-11.3,6.159-6.2,3.107-7.409,8.475-11.534,8.475s-5.456-5.63-11.584-8.661c-5.218-2.581-11.254-2.256-11.254-5.973,0-4.721,5.525-6.882,10.939-9.558,3.856-1.906,6.652-5.077,11.9-5.077C123.524,266.6,126.646,270.408,130.72,272.827Z" transform="translate(-90.39 -242.296)"/><path class="b" d="M117.868,285.14s-4.317,1.965-7.68.336-4.5-6.233-4.5-6.233,4.317-1.964,7.681-.336S117.868,285.14,117.868,285.14Z" transform="translate(-93.368 -245.454)"/><path class="b" d="M129.849,285.14s4.317,1.965,7.68.336,4.5-6.233,4.5-6.233-4.317-1.964-7.68-.336S129.849,285.14,129.849,285.14Z" transform="translate(-99.91 -245.454)"/></svg>