<svg id="Camada_1" data-name="Camada 1" xmlns="http://www.w3.org/2000/svg" viewBox="0 0 841.89 595.28"><defs><style>.cls-1{fill:#fff;}</style></defs><path class="cls-1" d="M308.8,320.16c21.89-15.21,48.9-17.38,73.56-25.73.49-20.88-5.31-87.41-89-158.16C228.74,81.67,156,24.15,156,24.15s-18,214.77,49.12,269.53c38,31,103.71,19.58,103.71,19.58Zm-9.19-23.32c-145.57,0-134-250.09-134-250.09S398.25,296.84,299.61,296.84Z"/><path class="cls-1" d="M685.92,21.37S613.15,78.88,548.55,133.48c-72.73,61.48-86.66,119.8-88.74,147.73,25.31,13.92,50.33,28.37,73.28,45.89V310.47s65.69,11.46,103.71-19.58C703.89,236.13,685.92,21.37,685.92,21.37ZM542.28,294.05c-98.64,0,134-250.09,134-250.09S687.84,294.05,542.28,294.05Z"/><path class="cls-1" d="M555.88,325.77c-40.62-24.12-71.75-62.1-131.49-62.1-52.31,0-80.19,31.61-118.63,50.61-54,26.68-109.07,48.24-109.07,95.3,0,37.06,60.19,33.82,112.22,59.55,61.09,30.23,74.34,86.36,115.48,86.36S477.6,502,539.38,471c51-25.57,112.7-25,112.7-61.41C652.08,367.28,600.75,352.42,555.88,325.77ZM321.49,420.4c-33.54-16.23-44.86-62.14-44.86-62.14s43.05-19.6,76.58-3.36,44.85,62.15,44.85,62.15S355,436.64,321.49,420.4Zm207.37,0c-33.53,16.24-76.57-3.35-76.57-3.35s11.32-45.91,44.84-62.15,76.59,3.36,76.59,3.36S562.39,404.17,528.86,420.4Z"/></svg>