<svg xmlns="http://www.w3.org/2000/svg" width="229.326" height="229.238" viewBox="0 0 229.326 229.238"><g transform="translate(0 1.192)"><path fill="#fff" d="M148.688,281.775c-27.725-23.432-58.958-48.121-58.958-48.121s-7.711,92.178,21.082,115.682c16.317,13.321,44.51,8.4,44.51,8.4v30.537H161.2q-7.527.211-11.293,4.606a14.713,14.713,0,0,0-3.766,9.826A15.532,15.532,0,0,0,149.9,412.75q3.763,4.6,11.293,4.6h-5.873v-2.425c0,5.28,1.5-2.652,4.5.122a17.083,17.083,0,0,0,22.38-.013c3-2.79,4.5,5.205,4.5.044V352.559S192.113,318.474,148.688,281.775Zm2.693,68.915c-62.475,0-57.491-107.338-57.491-107.338S193.717,350.69,151.381,350.69Z" transform="translate(-88.792 -233.654)"/></g><g transform="translate(131.207)"><path fill="#fff" d="M131.056,352.174v62.518c0,5.158,1.5-2.833,4.5-.044a17.089,17.089,0,0,0,22.377.012c3-2.774,4.5,5.158,4.5-.122v2.425h-5.873q7.527,0,11.293-4.6a15.507,15.507,0,0,0,3.766-10.039,14.719,14.719,0,0,0-3.766-9.833q-3.763-4.39-11.293-4.6h5.873V357.354s28.193,4.915,44.51-8.406c28.792-23.5,21.082-115.676,21.082-115.676s-31.233,24.686-58.958,48.117C125.639,318.089,131.056,352.174,131.056,352.174Zm92.806-109.21S228.848,350.3,166.37,350.3C124.035,350.3,223.861,242.964,223.861,242.964Z" transform="translate(-130.84 -233.272)"/></g><path fill="#fff" d="M248.854,293.253c19.259,11.436,41.29,17.815,41.29,35.97,0,15.64-26.471,15.381-48.367,26.355-26.521,13.3-31.7,36.266-49.356,36.266s-23.347-24.09-49.569-37.062c-22.327-11.047-48.158-9.655-48.158-25.56,0-20.2,23.641-29.451,46.81-40.9,16.5-8.157,28.465-21.725,50.917-21.725C218.061,266.6,231.423,282.9,248.854,293.253Z" transform="translate(-76.278 -162.605)"/><path fill="#fb5748" d="M157.807,307.7s-18.473,8.41-32.865,1.439-19.253-26.674-19.253-26.674,18.473-8.406,32.868-1.439S157.807,307.7,157.807,307.7Z" transform="translate(-52.964 -137.876)"/><path fill="#fb5748" d="M129.849,307.7s18.473,8.41,32.865,1.439,19.25-26.674,19.25-26.674-18.473-8.406-32.865-1.439S129.849,307.7,129.849,307.7Z" transform="translate(-1.733 -137.876)"/></svg>