<svg xmlns="http://www.w3.org/2000/svg" width="243.84" height="109.175" viewBox="0 0 243.84 109.175"><path fill="#fff" d="M578.243,473.691a8.505,8.505,0,0,0,3.668,6.257,13.022,13.022,0,0,0,7.012,2.05,10.271,10.271,0,0,0,4.1-.755,20.137,20.137,0,0,0,3.452-1.618q1.618-.809,2.913-1.618a5.923,5.923,0,0,1,2.481-.755,4.552,4.552,0,0,1,3.236,1.51,4.839,4.839,0,0,1,1.4,3.344c0,2.158-1.51,4.1-4.639,5.826a28.125,28.125,0,0,1-10.249,3.452c-.647,0-1.295.108-1.834.108-.647,0-1.187.108-1.726.108-6.365,0-11.543-2.05-15.427-6.149a21.849,21.849,0,0,1-5.933-15.643,22.882,22.882,0,0,1,5.718-15.319,18.538,18.538,0,0,1,14.672-6.689,17.97,17.97,0,0,1,13.269,5.286,23.339,23.339,0,0,1,6.8,11.543l.323,1.942a11.723,11.723,0,0,1,.108,1.942,5.453,5.453,0,0,1-1.187,3.776,4.845,4.845,0,0,1-3.776,1.295H578.243Zm17.8-7.552a11.544,11.544,0,0,0-2.8-6.149,8.994,8.994,0,0,0-12.406,0,9.62,9.62,0,0,0-2.8,6.149Z" transform="translate(-526.754 -407.884)"/><path fill="#fff" d="M607.5,485.111V454.689a6.478,6.478,0,0,1,1.618-4.531,5.306,5.306,0,0,1,4.1-1.726,5.206,5.206,0,0,1,3.56,1.079,4.89,4.89,0,0,1,1.618,3.129,10.427,10.427,0,0,1,4.315-3.452A16.88,16.88,0,0,1,629.4,448a15.8,15.8,0,0,1,11.112,3.992c2.913,2.7,4.423,6.473,4.423,11.327v21.792a6.569,6.569,0,0,1-1.618,4.639,5.154,5.154,0,0,1-4.1,1.726,5.305,5.305,0,0,1-4.1-1.726,6.3,6.3,0,0,1-1.618-4.531V465.261a7.073,7.073,0,0,0-7.444-7.767,6.774,6.774,0,0,0-5.394,2.266,8.255,8.255,0,0,0-1.942,5.61v19.742a6.569,6.569,0,0,1-1.618,4.639,5.524,5.524,0,0,1-4.1,1.726,5.306,5.306,0,0,1-4.1-1.726,7.652,7.652,0,0,1-1.4-4.639Z" transform="translate(-523.539 -407.868)"/><path fill="#fff" d="M645.4,485.111V454.689a6.477,6.477,0,0,1,1.618-4.531,5.306,5.306,0,0,1,4.1-1.726,5.206,5.206,0,0,1,3.56,1.079,4.89,4.89,0,0,1,1.618,3.129,10.428,10.428,0,0,1,4.315-3.452A16.88,16.88,0,0,1,667.3,448a15.8,15.8,0,0,1,11.112,3.992c2.913,2.7,4.423,6.473,4.423,11.327v21.792a6.568,6.568,0,0,1-1.618,4.639,5.154,5.154,0,0,1-4.1,1.726,5.305,5.305,0,0,1-4.1-1.726,6.477,6.477,0,0,1-1.618-4.531V465.261a7.073,7.073,0,0,0-7.444-7.767,6.774,6.774,0,0,0-5.394,2.266,8.255,8.255,0,0,0-1.942,5.61v19.742A6.569,6.569,0,0,1,655,489.75a5.524,5.524,0,0,1-4.1,1.726,5.306,5.306,0,0,1-4.1-1.726,7.651,7.651,0,0,1-1.4-4.639Z" transform="translate(-520.552 -407.868)"/><path fill="#fff" d="M694.743,473.691a8.505,8.505,0,0,0,3.668,6.257,13.022,13.022,0,0,0,7.012,2.05,10.27,10.27,0,0,0,4.1-.755,20.134,20.134,0,0,0,3.452-1.618q1.618-.809,2.913-1.618a5.924,5.924,0,0,1,2.481-.755,4.552,4.552,0,0,1,3.236,1.51,4.839,4.839,0,0,1,1.4,3.344c0,2.158-1.51,4.1-4.639,5.826a28.125,28.125,0,0,1-10.249,3.452c-.647,0-1.295.108-1.834.108-.647,0-1.187.108-1.726.108-6.365,0-11.543-2.05-15.427-6.149a21.849,21.849,0,0,1-5.933-15.643,22.882,22.882,0,0,1,5.718-15.319,18.538,18.538,0,0,1,14.672-6.689,17.97,17.97,0,0,1,13.269,5.286,23.339,23.339,0,0,1,6.8,11.543q.162.971.324,1.942a11.71,11.71,0,0,1,.108,1.942,5.454,5.454,0,0,1-1.187,3.776,4.845,4.845,0,0,1-3.776,1.295H694.743Zm17.8-7.552a11.545,11.545,0,0,0-2.8-6.149,8.994,8.994,0,0,0-12.406,0,9.62,9.62,0,0,0-2.8,6.149Z" transform="translate(-517.573 -407.884)"/><path fill="#fff" d="M758.206,455.1v.755c0,.216-.108.539-.108.755a6.522,6.522,0,0,1-1.51,2.8,3.42,3.42,0,0,1-2.7,1.295,2.986,2.986,0,0,1-.971-.108,3.152,3.152,0,0,1-.971-.216c-.324-.108-.755-.216-1.187-.324s-.755-.324-1.187-.431c-.755-.216-1.51-.539-2.266-.755a9.2,9.2,0,0,0-2.481-.324,8.132,8.132,0,0,0-7.228,3.56,13.881,13.881,0,0,0-2.374,7.983v.647a13.628,13.628,0,0,0,2.7,7.444,7.9,7.9,0,0,0,6.9,3.344,7.636,7.636,0,0,0,1.51-.108,8.982,8.982,0,0,0,1.618-.431,2.033,2.033,0,0,0,.863-.216,7.43,7.43,0,0,1,.863-.324c.755-.324,1.51-.539,2.158-.863a5.41,5.41,0,0,1,1.51-.324,4.654,4.654,0,0,1,3.452,1.51,4.8,4.8,0,0,1,1.4,3.56,5.147,5.147,0,0,1-2.481,4.423,18.908,18.908,0,0,1-5.394,2.481,20.236,20.236,0,0,1-3.344.647c-1.079.108-1.942.216-2.7.216a18.6,18.6,0,0,1-14.78-6.473,22.394,22.394,0,0,1-5.61-15.319,22.882,22.882,0,0,1,5.718-15.319A18.539,18.539,0,0,1,744.29,448.3a24.411,24.411,0,0,1,2.7.108c.971.108,2.05.324,3.129.539a19.549,19.549,0,0,1,5.61,2.158,4.366,4.366,0,0,1,2.481,3.992Z" transform="translate(-514.366 -407.845)"/><g transform="translate(0)"><path fill="#fff" d="M552.249,428.924c-10.464-8.846-22.223-18.124-22.223-18.124s-2.913,34.845,7.983,43.692c6.149,5.07,16.829,3.128,16.829,3.128v11.543H542.648a5.51,5.51,0,0,0-4.315,1.726,5.4,5.4,0,0,0-1.4,3.668,5.671,5.671,0,0,0,1.4,3.776,5.173,5.173,0,0,0,4.315,1.726h12.191v33.767a5.634,5.634,0,0,0,1.726,4.531,5.866,5.866,0,0,0,4.208,1.618,5.691,5.691,0,0,0,4.207-1.618,5.781,5.781,0,0,0,1.726-4.531V455.57C566.6,455.57,568.647,442.733,552.249,428.924Zm1.079,26c-23.626,0-21.684-40.563-21.684-40.563S569.294,454.923,553.328,454.923Z" transform="translate(-529.672 -410.8)"/></g></svg>